<?xml version="1.0" encoding="iso-8859-1"?>
<!-- Generator: Adobe Illustrator 17.1.0, SVG Export Plug-In . SVG Version: 6.00 Build 0)  -->
<!DOCTYPE svg PUBLIC "-//W3C//DTD SVG 1.1//EN" "http://www.w3.org/Graphics/SVG/1.1/DTD/svg11.dtd">
<svg xmlns="http://www.w3.org/2000/svg" xmlns:xlink="http://www.w3.org/1999/xlink" version="1.1" id="Capa_1" x="0px" y="0px" viewBox="0 0 297.653 297.653" style="enable-background:new 0 0 297.653 297.653;" xml:space="preserve" width="512px" height="512px">
<g>
	<path d="M93,135.513L0,250.652h118.4l33.8-41.869L93,135.513z M93.347,160.031l33.666,41.621H59.681L93.347,160.031z" fill="#FFFFFF"/>
	<path d="M111,283.652h186l-93-114.971L111,283.652z M238.013,234.652h-67.332l33.666-41.621L238.013,234.652z" fill="#FFFFFF"/>
	<path d="M157.664,69.652c-0.355-14-11.698-25.337-25.651-25.337c-3.082,0-6.036,0.376-8.773,1.372   c-1.897-8.879-9.78-15.624-19.227-15.624c-3.403,0-6.604,0.823-9.396,2.347c-0.662-10.264-9.173-18.409-19.604-18.409   c-10.734,0-19.443,8.592-19.647,19.277c-2.65-1.857-5.871-2.959-9.353-2.959c-8.481,0-15.45,6.463-16.252,14.734   c-2.638-1.314-5.601-2.072-8.748-2.072c-10.862,0-19.667,9.142-19.667,20.003c0,2.219,0.385,4.668,1.062,6.668H157.664z" fill="#FFFFFF"/>
	<path d="M297.653,75.065c0-8.652-7.015-15.626-15.667-15.626c-2.572,0-4.992,0.651-7.134,1.749   c0.297-1.309,0.468-2.653,0.468-4.052c0-10.125-8.209-18.329-18.334-18.329c-10.05,0-18.201,8.092-18.322,18.114   c-3.293-3.16-7.754-5.11-12.678-5.11c-10.125,0-18.333,8.21-18.333,18.335c0,0.744,0.058,1.472,0.144,2.192   c-3.875-3.631-9.081-5.938-14.811-5.938c-10.832,0-19.807,8.252-21.41,18.252h122.725   C296.396,82.652,297.653,78.718,297.653,75.065z" fill="#FFFFFF"/>
	<path d="M33.742,118.559c5.493,0,9.945-4.453,9.945-9.945c0-8.252-9.945-23.402-9.945-23.402s-9.944,15.15-9.944,23.402   C23.798,114.105,28.251,118.559,33.742,118.559z" fill="#FFFFFF"/>
	<path d="M66.742,118.559c5.493,0,9.945-4.453,9.945-9.945c0-8.252-9.945-23.402-9.945-23.402s-9.944,15.15-9.944,23.402   C56.798,114.105,61.251,118.559,66.742,118.559z" fill="#FFFFFF"/>
	<path d="M99.742,118.559c5.493,0,9.945-4.453,9.945-9.945c0-8.252-9.945-23.402-9.945-23.402s-9.944,15.15-9.944,23.402   C89.798,114.105,94.251,118.559,99.742,118.559z" fill="#FFFFFF"/>
	<path d="M132.742,118.559c5.493,0,9.945-4.453,9.945-9.945c0-8.252-9.945-23.402-9.945-23.402s-9.944,15.15-9.944,23.402   C122.798,114.105,127.251,118.559,132.742,118.559z" fill="#FFFFFF"/>
	<path d="M181.742,134.559c5.493,0,9.945-4.453,9.945-9.945c0-8.252-9.945-23.402-9.945-23.402s-9.944,15.15-9.944,23.402   C171.798,130.105,176.251,134.559,181.742,134.559z" fill="#FFFFFF"/>
	<path d="M214.742,134.559c5.493,0,9.945-4.453,9.945-9.945c0-8.252-9.945-23.402-9.945-23.402s-9.944,15.15-9.944,23.402   C204.798,130.105,209.251,134.559,214.742,134.559z" fill="#FFFFFF"/>
	<path d="M247.742,134.559c5.493,0,9.945-4.453,9.945-9.945c0-8.252-9.945-23.402-9.945-23.402s-9.944,15.15-9.944,23.402   C237.798,130.105,242.251,134.559,247.742,134.559z" fill="#FFFFFF"/>
	<path d="M280.742,134.559c5.493,0,9.945-4.453,9.945-9.945c0-8.252-9.945-23.402-9.945-23.402s-9.944,15.15-9.944,23.402   C270.798,130.105,275.251,134.559,280.742,134.559z" fill="#FFFFFF"/>
</g>
<g>
</g>
<g>
</g>
<g>
</g>
<g>
</g>
<g>
</g>
<g>
</g>
<g>
</g>
<g>
</g>
<g>
</g>
<g>
</g>
<g>
</g>
<g>
</g>
<g>
</g>
<g>
</g>
<g>
</g>
</svg>
