<?xml version="1.0" encoding="utf-8"?>
<!DOCTYPE svg PUBLIC "-//W3C//DTD SVG 1.1//EN" "http://www.w3.org/Graphics/SVG/1.1/DTD/svg11.dtd">
<svg xmlns="http://www.w3.org/2000/svg" xmlns:xlink="http://www.w3.org/1999/xlink" version="1.1" viewBox="0 0 512 512" enable-background="new 0 0 512 512" width="512px" height="512px">
  <g>
    <g>
      <path d="m30.4,222.4c0.3,0 0.7,0 1,0 10.6,0 19.6-8.5 20.4-19.2 0.1-1.6 3.7-39.6 77.5-42.9 32.2-1.5 65.4,6.5 96.2,22.9 15.4,8.2 30.5,15.3 45,21.2 61.9,24.9 131.3,20.5 185.8-11.9 23.1-13.7 37.7-29.3 43.6-46.2 3.7-10.7-2-22.3-12.7-25.9-10.7-3.7-22.3,2-25.9,12.7-1.5,4.2-6.7,13-25.8,24.4-43.6,25.9-99.5,29.3-149.7,9.1-13.2-5.3-27-11.8-41-19.3-37.2-19.9-77.8-29.4-117.3-27.7-90.7,4.1-115.9,55.6-116.5,82.2-0.3,11.1 8.4,20.1 19.4,20.6z" fill="#FFFFFF"/>
      <path d="m487.2,259.6c-10.7-3.7-22.3,2-25.9,12.7-1.5,4.2-6.7,13.1-25.8,24.4-43.6,25.9-99.5,29.3-149.7,9.1-13.2-5.3-27-11.8-41-19.3-37.2-19.9-77.8-29.4-117.3-27.7-90.7,4.1-115.9,55.6-116.5,82.3-0.3,11.1 8.4,20.1 19.4,20.6 0.3,0 0.7,0 1,0 10.6,0 19.6-8.5 20.4-19.2 0.1-1.6 3.7-39.6 77.5-42.9 32.2-1.5 65.4,6.5 96.2,22.9 15.4,8.2 30.5,15.3 45,21.2 61.9,24.9 131.3,20.5 185.8-11.9 23.1-13.7 37.7-29.3 43.6-46.2 3.6-10.7-2-22.3-12.7-26z" fill="#FFFFFF"/>
      <path d="m487.2,398.9c-10.7-3.7-22.3,2-25.9,12.7-1.5,4.2-6.7,13-25.8,24.4-43.6,25.9-99.5,29.3-149.7,9.1-13.2-5.3-27-11.8-41-19.3-37.2-19.9-77.8-29.4-117.3-27.7-90.7,4.1-115.9,55.6-116.5,82.3-0.3,11.1 8.4,20.1 19.4,20.6 0.3,0 0.7,0 1,0 10.6,0 19.6-8.5 20.4-19.2 0.1-1.6 3.7-39.6 77.5-42.9 32.2-1.6 65.4,6.5 96.2,22.9 15.4,8.2 30.5,15.3 45,21.2 61.9,24.9 131.4,20.5 185.8-11.9 23.1-13.7 37.7-29.3 43.6-46.2 3.6-10.7-2-22.3-12.7-26z" fill="#FFFFFF"/>
      <path d="m57.3,73.3c6.3-0.2 25.4,1.6 33.8,12 4,4.9 9.9,7.5 15.8,7.5 0.2,0 0.4,0 0.6,0 0.2,0 0.4,0 0.6,0 5.9,0 11.8-2.6 15.8-7.5 8.4-10.3 27.3-12.2 33.8-12 11.7,0.4 20.7-8.4 21.1-19.6 0.4-11.3-8.3-20.8-19.6-21.2-3.6-0.2-29.8-0.6-51.7,13.5-22-14.1-48.2-13.7-51.7-13.5-11.2,0.4-19.9,9.9-19.5,21.1 0.3,11.2 9.4,19.7 21,19.7z" fill="#FFFFFF"/>
      <path d="m360.2,51.9c6.3-0.2 25.4,1.6 33.8,12 4,4.9 9.9,7.5 15.8,7.5 0.2,0 0.4,0 0.6,0 0.2,0 0.4,0 0.6,0 5.9,0 11.8-2.6 15.8-7.5 8.4-10.3 27.3-12.2 33.8-12 11.7,0.4 20.7-8.4 21.1-19.6 0.4-11.3-8.3-20.8-19.6-21.2-3.6-0.2-29.8-0.6-51.7,13.5-22-14.1-48.2-13.7-51.7-13.5-11.2,0.4-19.9,9.9-19.5,21.1 0.4,11.2 9.5,19.7 21,19.7z" fill="#FFFFFF"/>
    </g>
  </g>
</svg>
