<?xml version="1.0" encoding="iso-8859-1"?>
<!-- Generator: Adobe Illustrator 18.1.1, SVG Export Plug-In . SVG Version: 6.00 Build 0)  -->
<svg xmlns="http://www.w3.org/2000/svg" xmlns:xlink="http://www.w3.org/1999/xlink" version="1.1" id="Capa_1" x="0px" y="0px" viewBox="0 0 96.349 96.349" style="enable-background:new 0 0 96.349 96.349;" xml:space="preserve" width="512px" height="512px">
<g id="_x31__2_">
	<g>
		<path style="fill-rule:evenodd;clip-rule:evenodd;" d="M94.868,20.746C94.868,9.112,74.358,0,48.175,0    C21.992,0,1.481,9.112,1.481,20.746c0,3.646,2.017,7.045,5.591,9.993c-1.087,1.615-1.673,3.34-1.673,5.148    c0,3.941,2.761,7.495,7.532,10.355c-0.367,0.942-0.567,1.917-0.567,2.921c0,4.57,3.954,8.558,10.48,11.358    c-0.018,0.198-0.033,0.398-0.033,0.601c0,3.806,3.192,6.783,7.976,8.867c-0.007,0.117-0.017,0.232-0.017,0.35    c0,4.022,3.832,7.436,9.909,9.482c0.179,4.548,4.882,8.296,11.582,9.739c-0.001,0.03-0.006,0.059-0.006,0.089    c0,3.821,4.294,6.702,9.989,6.702c5.695,0,9.989-2.881,9.989-6.702c0-1.004-0.303-1.941-0.844-2.78    c2.959-1.895,4.762-4.452,4.762-7.314c0-1.189-0.321-2.323-0.894-3.383c1.962-1.692,3.071-3.674,3.071-5.833    c0-1.643-0.639-3.186-1.809-4.575c1.154-1.375,1.809-2.923,1.809-4.642c0-1.409-0.446-2.703-1.24-3.882    c3.015-2.328,4.722-5.077,4.722-8.077c0-1.316-0.335-2.582-0.957-3.788c3.935-2.698,6.181-5.936,6.181-9.488    c0-1.067-0.213-2.104-0.602-3.108C91.758,29.405,94.868,25.268,94.868,20.746z M9.986,35.886c0-0.842,0.296-1.696,0.846-2.544    c3.148,1.855,6.991,3.458,11.372,4.74c-2.758,1.249-5.019,2.72-6.677,4.36C11.975,40.405,9.986,38.1,9.986,35.886z M69.155,41.917    c1.661,0.68,3.097,1.43,4.283,2.217c-6.428,2.684-15.916,4.58-27.221,4.58c-10.672,0-19.728-1.689-26.116-4.137    c1.293-0.949,2.948-1.854,4.918-2.66c1.769-0.724,3.736-1.337,5.827-1.858c5.336,0.922,11.173,1.431,17.33,1.431    c5.663,0,11.059-0.428,16.041-1.214C65.977,40.749,67.635,41.295,69.155,41.917z M73.74,70.338c0,0.753-0.551,1.597-1.56,2.43    c-1.063-0.781-2.312-1.466-3.708-2.035c1.664-0.599,3.181-1.293,4.502-2.077C73.477,69.238,73.74,69.81,73.74,70.338z     M58.405,73.528c3.547,0,6.661,0.71,8.975,1.754c-3.249,1.147-7.616,1.959-12.831,1.959c-2.726,0-5.21-0.228-7.436-0.603    C49.366,74.896,53.47,73.528,58.405,73.528z M50.569,68.903c-5.049,0-9.43-0.593-12.997-1.493c1.483-1.023,3.683-1.99,6.467-2.718    c1.003,0.036,2.017,0.058,3.047,0.058c4.553,0,8.843-0.358,12.758-1.012c3.433,0.393,6.343,1.139,8.591,2.054    C64.399,67.541,58.247,68.903,50.569,68.903z M54.549,58.808c-4.029,0-7.759,0.441-11.018,1.229    c-4.957-0.226-9.646-0.916-13.738-2.03c3.564-2.43,10.922-4.667,20.777-4.667c7.853,0,14.12,1.422,18.149,3.229    c-2.677,1.055-5.743,1.89-9.075,2.485C58.011,58.894,56.309,58.808,54.549,58.808z M47.086,33.574    c-6.052,0-11.646,0.629-16.5,1.753c-4.767-0.878-9.149-2.115-12.933-3.686c-1.2-0.498-2.307-1.023-3.336-1.565    c5.898-3.9,17.404-7.017,31.9-7.017c15.891,0,28.192,3.745,33.446,8.163c-0.318,0.141-0.635,0.282-0.966,0.419    c-4.114,1.708-8.93,3.025-14.184,3.91C59.449,34.287,53.528,33.574,47.086,33.574z M16.951,49.162    c0-0.272,0.043-0.548,0.115-0.825c3.887,1.664,8.607,2.97,13.924,3.832c-2.621,1.117-4.78,2.497-6.219,4.132    C19.872,54.247,16.951,51.59,16.951,49.162z M27.764,62.263c2.149,0.623,4.475,1.142,6.952,1.541    c-0.829,0.606-1.54,1.255-2.122,1.943C30.107,64.655,28.446,63.419,27.764,62.263z M35.919,71.739    c2.557,0.675,5.333,1.162,8.181,1.456c-0.826,0.674-1.536,1.405-2.08,2.193C38.952,74.346,36.852,73.008,35.919,71.739z     M67.646,89.648c0,0.534-1.857,2.076-5.402,2.076c-2.7,0-4.414-0.893-5.08-1.556c0.412,0.016,0.821,0.036,1.241,0.036    c3.159,0,6.097-0.475,8.641-1.309C67.43,89.193,67.646,89.475,67.646,89.648z M71.563,79.554c0,1.51-1.597,3.11-4.211,4.284    c-1.478-0.567-3.213-0.891-5.108-0.891c-3.167,0-5.898,0.893-7.701,2.341c-4.294-0.659-7.536-2.354-8.761-4.175    c2.689,0.487,5.637,0.754,8.766,0.754c6.696,0,12.576-1.211,16.815-3.227C71.487,78.945,71.563,79.251,71.563,79.554z     M73.74,61.121c0,0.548-0.287,1.139-0.805,1.742c-1.019-0.596-2.166-1.135-3.421-1.615c1.306-0.483,2.525-1.011,3.65-1.577    C73.53,60.172,73.74,60.662,73.74,61.121z M77.222,49.162c0,1.601-1.275,3.302-3.545,4.865c-1.817-1.192-4.076-2.19-6.613-2.988    c3.698-0.901,6.999-2.041,9.797-3.382C77.095,48.164,77.222,48.668,77.222,49.162z M82.446,35.886c0,1.985-1.601,4.042-4.49,5.914    c-1.394-1.223-3.133-2.343-5.173-3.335c3.535-0.957,6.741-2.119,9.552-3.449C82.401,35.307,82.446,35.598,82.446,35.886z     M83.946,28.982c-6.015-6.319-20.259-10.549-37.729-10.549c-15.994,0-29.284,3.545-36.032,8.992    c-2.666-2.127-4.116-4.42-4.116-6.679c0-3.868,4.222-7.839,11.584-10.896c8.116-3.369,18.955-5.225,30.522-5.225    c11.567,0,22.406,1.856,30.521,5.225c7.362,3.057,11.584,7.028,11.584,10.896C90.281,23.569,88.023,26.445,83.946,28.982z" fill="#FFFFFF"/>
	</g>
</g>
<g>
</g>
<g>
</g>
<g>
</g>
<g>
</g>
<g>
</g>
<g>
</g>
<g>
</g>
<g>
</g>
<g>
</g>
<g>
</g>
<g>
</g>
<g>
</g>
<g>
</g>
<g>
</g>
<g>
</g>
</svg>
