<?xml version="1.0" encoding="iso-8859-1"?>
<!-- Generator: Adobe Illustrator 17.1.0, SVG Export Plug-In . SVG Version: 6.00 Build 0)  -->
<!DOCTYPE svg PUBLIC "-//W3C//DTD SVG 1.1//EN" "http://www.w3.org/Graphics/SVG/1.1/DTD/svg11.dtd">
<svg xmlns="http://www.w3.org/2000/svg" xmlns:xlink="http://www.w3.org/1999/xlink" version="1.1" id="Capa_1" x="0px" y="0px" viewBox="0 0 336.131 336.131" style="enable-background:new 0 0 336.131 336.131;" xml:space="preserve" width="512px" height="512px">
<g>
	<path d="M315.288,268.84c-3.185-4.03-7.73-6.38-13.51-6.982c-44.241-4.629-89.229-6.976-133.711-6.976   c-44.483,0-89.471,2.347-133.71,6.976c-5.781,0.603-10.328,2.952-13.512,6.983c-6.451,8.166-5.717,21.559-4.152,33.555l0.057,0.449   c1.623,12.45,4.339,33.288,22.668,33.286c0.868,0,1.773-0.049,2.693-0.145c41.676-4.359,84.053-6.57,125.957-6.57   c41.903,0,84.281,2.211,125.959,6.57c0.918,0.096,1.823,0.145,2.69,0.145c18.329,0,21.045-20.837,22.667-33.278l0.055-0.43   C321.005,290.398,321.738,277.005,315.288,268.84z" fill="#FFFFFF"/>
	<path d="M30.907,240.048l0.551-0.029c45.264-4.736,91.261-7.138,136.713-7.138c45.625,0,91.716,2.402,136.992,7.139l0.563,0.029   c3.073,0,6.34-2.624,6.34-7.486v-19.842c0-56.507-32.885-105.478-80.531-128.827c0.676-0.616,1.306-1.212,1.869-1.775   c13.478-13.477,16.114-31.954,6.003-42.064c-3.974-3.975-9.384-6.074-15.646-6.074c-9.115,0-18.745,4.401-26.419,12.076   c-1.67,1.669-3.491,3.74-5.375,6.077c1.237-6.821,1.972-13.297,1.972-18.145c0-19.06-11.201-33.989-25.5-33.989   c-14.299,0-25.5,14.93-25.5,33.989c0,4.847,0.734,11.324,1.971,18.144c-1.884-2.336-3.705-4.407-5.374-6.076   c-7.675-7.676-17.305-12.077-26.419-12.077c-6.262,0-11.672,2.101-15.646,6.074c-10.111,10.11-7.474,28.588,6.003,42.066   c0.588,0.588,1.246,1.21,1.957,1.855c-47.557,23.381-80.365,72.303-80.365,128.744v18.967   C25.066,239.232,29.151,240.047,30.907,240.048z" fill="#FFFFFF"/>
</g>
<g>
</g>
<g>
</g>
<g>
</g>
<g>
</g>
<g>
</g>
<g>
</g>
<g>
</g>
<g>
</g>
<g>
</g>
<g>
</g>
<g>
</g>
<g>
</g>
<g>
</g>
<g>
</g>
<g>
</g>
</svg>
