<?xml version="1.0" encoding="iso-8859-1"?>
<!-- Generator: Adobe Illustrator 17.1.0, SVG Export Plug-In . SVG Version: 6.00 Build 0)  -->
<!DOCTYPE svg PUBLIC "-//W3C//DTD SVG 1.1//EN" "http://www.w3.org/Graphics/SVG/1.1/DTD/svg11.dtd">
<svg xmlns="http://www.w3.org/2000/svg" xmlns:xlink="http://www.w3.org/1999/xlink" version="1.1" id="Capa_1" x="0px" y="0px" viewBox="0 0 355.457 355.457" style="enable-background:new 0 0 355.457 355.457;" xml:space="preserve" width="512px" height="512px">
<g>
	<g>
		<path d="M177.729,274.229c-53.21,0-96.5-43.29-96.5-96.5c0-53.21,43.29-96.5,96.5-96.5s96.5,43.29,96.5,96.5    C274.229,230.939,230.939,274.229,177.729,274.229z M177.729,96.229c-44.94,0-81.5,36.561-81.5,81.5    c0,44.939,36.56,81.5,81.5,81.5s81.5-36.561,81.5-81.5C259.229,132.789,222.668,96.229,177.729,96.229z" fill="#FFFFFF"/>
	</g>
	<g>
		<g>
			<path d="M195.229,67.864c-4.143,0-7.5-3.358-7.5-7.5c0-14.592-5.652-36.777-10-43.849c-4.348,7.071-10,29.256-10,43.849     c0,4.142-3.357,7.5-7.5,7.5c-4.143,0-7.5-3.358-7.5-7.5c0-9.291,2.174-23.202,5.41-34.616C163.119,8.182,169.344,0,177.729,0     c8.385,0,14.609,8.182,19.59,25.749c3.236,11.414,5.41,25.325,5.41,34.616C202.729,64.506,199.371,67.864,195.229,67.864z" fill="#FFFFFF"/>
		</g>
		<g>
			<path d="M177.729,355.457c-8.385,0-14.609-8.182-19.59-25.749c-3.236-11.414-5.41-25.325-5.41-34.616c0-4.142,3.357-7.5,7.5-7.5     c4.143,0,7.5,3.358,7.5,7.5c0,14.592,5.652,36.777,10,43.849c4.348-7.071,10-29.256,10-43.849c0-4.142,3.357-7.5,7.5-7.5     c4.143,0,7.5,3.358,7.5,7.5c0,9.291-2.174,23.202-5.41,34.616C192.338,347.275,186.113,355.457,177.729,355.457z" fill="#FFFFFF"/>
		</g>
		<g>
			<path d="M273.092,114.613c-1.92,0-3.839-0.732-5.304-2.197c-2.929-2.929-2.929-7.678,0.001-10.607     c10.318-10.317,22.009-30.001,23.935-38.076c-8.074,1.926-27.758,13.617-38.076,23.935c-2.93,2.929-7.678,2.929-10.607,0     c-2.929-2.929-2.929-7.678,0-10.607c6.57-6.57,17.944-14.869,28.302-20.651c15.944-8.9,26.133-10.285,32.06-4.356     c5.93,5.929,4.546,16.116-4.355,32.06c-5.782,10.359-14.082,21.733-20.652,28.303     C276.931,113.881,275.011,114.613,273.092,114.613z" fill="#FFFFFF"/>
		</g>
		<g>
			<path d="M61.399,306.994c-3.872,0-6.954-1.201-9.344-3.591c-5.93-5.929-4.546-16.116,4.354-32.06     c5.783-10.359,14.082-21.732,20.651-28.302c2.93-2.929,7.678-2.929,10.607,0c2.929,2.929,2.929,7.678,0,10.606     c-10.318,10.318-22.009,30.002-23.936,38.076c8.074-1.926,27.759-13.616,38.078-23.935c2.929-2.929,7.678-2.927,10.606,0     c2.929,2.929,2.929,7.678-0.001,10.607c-6.57,6.57-17.944,14.869-28.302,20.651C74.599,304.359,67.133,306.994,61.399,306.994z" fill="#FFFFFF"/>
		</g>
		<g>
			<path d="M295.093,202.729c-4.143,0-7.5-3.358-7.5-7.5c0-4.142,3.357-7.5,7.5-7.5c14.592,0,36.777-5.653,43.849-10     c-7.07-4.348-29.256-10-43.849-10c-4.143,0-7.5-3.358-7.5-7.5s3.357-7.5,7.5-7.5c9.291,0,23.202,2.174,34.615,5.41     c17.567,4.98,25.749,11.205,25.749,19.59c0,8.385-8.182,14.609-25.749,19.59C318.295,200.554,304.384,202.729,295.093,202.729z" fill="#FFFFFF"/>
		</g>
		<g>
			<path d="M60.364,202.729c-9.291,0-23.202-2.174-34.615-5.41C8.182,192.338,0,186.113,0,177.729     c-0.001-8.384,8.181-14.609,25.748-19.59c11.414-3.236,25.325-5.41,34.616-5.41c4.143,0,7.5,3.358,7.5,7.5s-3.357,7.5-7.5,7.5     c-14.592,0-36.777,5.652-43.849,10c7.071,4.348,29.257,10,43.849,10c4.143,0,7.5,3.358,7.5,7.5     C67.864,199.371,64.507,202.729,60.364,202.729z" fill="#FFFFFF"/>
		</g>
		<g>
			<path d="M294.057,306.994c-5.733,0-13.198-2.634-22.715-7.947c-10.359-5.783-21.733-14.082-28.302-20.652     c-2.929-2.929-2.929-7.678,0.001-10.606c2.929-2.93,7.678-2.928,10.606,0.001c10.317,10.318,30.001,22.009,38.076,23.935     c-1.926-8.074-13.616-27.758-23.936-38.077c-2.929-2.929-2.929-7.678,0-10.606c2.93-2.929,7.678-2.929,10.607,0     c6.569,6.57,14.869,17.943,20.651,28.302c8.9,15.943,10.284,26.13,4.355,32.06C301.012,305.792,297.929,306.993,294.057,306.994z     " fill="#FFFFFF"/>
		</g>
		<g>
			<path d="M82.365,114.614c-1.92,0-3.839-0.732-5.304-2.197c-6.569-6.571-14.869-17.944-20.651-28.303     c-8.899-15.943-10.284-26.13-4.355-32.059c5.931-5.93,16.118-4.545,32.059,4.354c10.359,5.783,21.733,14.082,28.304,20.652     c2.929,2.929,2.929,7.678,0,10.607c-2.93,2.929-7.678,2.929-10.607,0C91.492,77.35,71.808,65.659,63.733,63.733     c1.926,8.074,13.617,27.759,23.936,38.078c2.929,2.929,2.929,7.678-0.001,10.607C86.204,113.882,84.284,114.614,82.365,114.614z" fill="#FFFFFF"/>
		</g>
	</g>
</g>
<g>
</g>
<g>
</g>
<g>
</g>
<g>
</g>
<g>
</g>
<g>
</g>
<g>
</g>
<g>
</g>
<g>
</g>
<g>
</g>
<g>
</g>
<g>
</g>
<g>
</g>
<g>
</g>
<g>
</g>
</svg>
