<?xml version="1.0" encoding="iso-8859-1"?>
<!-- Generator: Adobe Illustrator 19.1.0, SVG Export Plug-In . SVG Version: 6.00 Build 0)  -->
<svg xmlns="http://www.w3.org/2000/svg" xmlns:xlink="http://www.w3.org/1999/xlink" version="1.1" id="Capa_1" x="0px" y="0px" viewBox="0 0 64 64" style="enable-background:new 0 0 64 64;" xml:space="preserve" width="512px" height="512px">
<g>
	<g>
		<g>
			<path d="M11,41h44c5.1,0,9-3.9,9-9c0-4.5-3.2-9.4-8-9.9C55.5,10.8,46,2,34,2C23.4,2,14.4,8.7,12.2,18H11C5,18,0,23.5,0,30     C0,36.3,4.7,41,11,41z M11,20h2.8l0.2-0.8C15.7,10.4,24.1,4,34,4c11.2,0,20,8.3,20,19v1h1c4.1,0,7,4.2,7,8c0,4-3,7-7,7H11     c-5.1,0-9-3.9-9-9C2,24.6,6.1,20,11,20z" fill="#FFFFFF"/>
			<rect x="21" y="43" width="2" height="5" fill="#FFFFFF"/>
			<rect x="21" y="52" width="2" height="5" fill="#FFFFFF"/>
			<path d="M24.7,48.7l-1.4-1.4l3-3l1.4,1.4L24.7,48.7z" fill="#FFFFFF"/>
			<path d="M17.7,55.7l-1.4-1.4l3-3l1.4,1.4L17.7,55.7z" fill="#FFFFFF"/>
			<path d="M23.3,52.7l1.4-1.4l3,3l-1.4,1.4L23.3,52.7z" fill="#FFFFFF"/>
			<path d="M20.7,47.3l-1.4,1.4l-3-3l1.4-1.4L20.7,47.3z" fill="#FFFFFF"/>
			<rect x="24" y="49" width="5" height="2" fill="#FFFFFF"/>
			<rect x="15" y="49" width="5" height="2" fill="#FFFFFF"/>
			<rect x="41" y="48" width="2" height="5" fill="#FFFFFF"/>
			<rect x="41" y="57" width="2" height="5" fill="#FFFFFF"/>
			<path d="M44.7,53.7l-1.4-1.4l3-3l1.4,1.4L44.7,53.7z" fill="#FFFFFF"/>
			<path d="M37.7,60.7l-1.4-1.4l3-3l1.4,1.4L37.7,60.7z" fill="#FFFFFF"/>
			<path d="M43.3,57.7l1.4-1.4l3,3l-1.4,1.4L43.3,57.7z" fill="#FFFFFF"/>
			<path d="M40.7,52.3l-1.4,1.4l-3-3l1.4-1.4L40.7,52.3z" fill="#FFFFFF"/>
			<rect x="44" y="54" width="5" height="2" fill="#FFFFFF"/>
			<rect x="35" y="54" width="5" height="2" fill="#FFFFFF"/>
		</g>
	</g>
</g>
<g>
</g>
<g>
</g>
<g>
</g>
<g>
</g>
<g>
</g>
<g>
</g>
<g>
</g>
<g>
</g>
<g>
</g>
<g>
</g>
<g>
</g>
<g>
</g>
<g>
</g>
<g>
</g>
<g>
</g>
</svg>
