<?xml version="1.0" encoding="iso-8859-1"?>
<!-- Generator: Adobe Illustrator 19.0.0, SVG Export Plug-In . SVG Version: 6.00 Build 0)  -->
<svg xmlns="http://www.w3.org/2000/svg" xmlns:xlink="http://www.w3.org/1999/xlink" version="1.1" id="Capa_1" x="0px" y="0px" viewBox="0 0 53.66 53.66" style="enable-background:new 0 0 53.66 53.66;" xml:space="preserve" width="512px" height="512px">
<g>
	<path d="M42.459,36.565c0.414-0.717,0.169-1.635-0.549-2.049l-2.08-1.201l2.08-1.201c0.718-0.414,0.963-1.332,0.549-2.049   c-0.414-0.719-1.333-0.963-2.049-0.549l-2.08,1.201v-2.402c0-0.829-0.672-1.5-1.5-1.5s-1.5,0.671-1.5,1.5v2.402l-2.08-1.201   c-0.716-0.414-1.636-0.17-2.049,0.549c-0.414,0.717-0.169,1.635,0.549,2.049l2.08,1.201l-2.08,1.201   c-0.718,0.414-0.963,1.332-0.549,2.049c0.277,0.481,0.782,0.75,1.3,0.75c0.255,0,0.513-0.065,0.749-0.202l2.08-1.201v2.402   c0,0.829,0.672,1.5,1.5,1.5s1.5-0.671,1.5-1.5v-2.402l2.08,1.201c0.236,0.137,0.494,0.202,0.749,0.202   C41.677,37.315,42.182,37.046,42.459,36.565z" fill="#FFFFFF"/>
	<path d="M21.459,36.565c0.414-0.717,0.169-1.635-0.549-2.049l-2.08-1.201l2.08-1.201c0.718-0.414,0.963-1.332,0.549-2.049   c-0.414-0.719-1.333-0.963-2.049-0.549l-2.08,1.201v-2.402c0-0.829-0.672-1.5-1.5-1.5c-0.828,0-1.5,0.671-1.5,1.5v2.402   l-2.08-1.201c-0.716-0.414-1.635-0.17-2.049,0.549c-0.414,0.717-0.169,1.635,0.549,2.049l2.08,1.201l-2.08,1.201   c-0.718,0.414-0.963,1.332-0.549,2.049c0.277,0.481,0.782,0.75,1.3,0.75c0.255,0,0.513-0.065,0.749-0.202l2.08-1.201v2.402   c0,0.829,0.672,1.5,1.5,1.5c0.828,0,1.5-0.671,1.5-1.5v-2.402l2.08,1.201c0.236,0.137,0.494,0.202,0.749,0.202   C20.677,37.315,21.182,37.046,21.459,36.565z" fill="#FFFFFF"/>
	<path d="M31.201,10.565c0.277,0.481,0.782,0.75,1.3,0.75c0.255,0,0.513-0.065,0.749-0.202l2.08-1.201v2.402   c0,0.829,0.672,1.5,1.5,1.5s1.5-0.671,1.5-1.5V9.912l2.08,1.201c0.236,0.137,0.494,0.202,0.749,0.202c0.518,0,1.022-0.269,1.3-0.75   c0.414-0.717,0.169-1.635-0.549-2.049l-2.08-1.201l2.08-1.201c0.718-0.414,0.963-1.332,0.549-2.049   c-0.414-0.719-1.333-0.963-2.049-0.549l-2.08,1.201V2.315c0-0.829-0.672-1.5-1.5-1.5s-1.5,0.671-1.5,1.5v2.402l-2.08-1.201   c-0.716-0.415-1.636-0.17-2.049,0.549c-0.414,0.717-0.169,1.635,0.549,2.049l2.08,1.201l-2.08,1.201   C31.032,8.93,30.787,9.847,31.201,10.565z" fill="#FFFFFF"/>
	<path d="M10.201,10.565c0.277,0.481,0.782,0.75,1.3,0.75c0.255,0,0.513-0.065,0.749-0.202l2.08-1.201v2.402   c0,0.829,0.672,1.5,1.5,1.5c0.828,0,1.5-0.671,1.5-1.5V9.912l2.08,1.201c0.236,0.137,0.494,0.202,0.749,0.202   c0.518,0,1.022-0.269,1.3-0.75c0.414-0.717,0.169-1.635-0.549-2.049l-2.08-1.201l2.08-1.201c0.718-0.414,0.963-1.332,0.549-2.049   c-0.414-0.719-1.333-0.963-2.049-0.549l-2.08,1.201V2.315c0-0.829-0.672-1.5-1.5-1.5c-0.828,0-1.5,0.671-1.5,1.5v2.402l-2.08-1.201   c-0.716-0.415-1.635-0.17-2.049,0.549c-0.414,0.717-0.169,1.635,0.549,2.049l2.08,1.201l-2.08,1.201   C10.032,8.93,9.787,9.847,10.201,10.565z" fill="#FFFFFF"/>
	<path d="M32.459,43.096c-0.414-0.719-1.332-0.963-2.049-0.549l-2.08,1.201v-2.402c0-0.829-0.672-1.5-1.5-1.5s-1.5,0.671-1.5,1.5   v2.402l-2.08-1.201c-0.717-0.414-1.635-0.17-2.049,0.549c-0.414,0.717-0.169,1.635,0.549,2.049l2.08,1.201l-2.08,1.201   c-0.718,0.414-0.963,1.332-0.549,2.049c0.277,0.481,0.782,0.75,1.3,0.75c0.255,0,0.513-0.065,0.749-0.202l2.08-1.201v2.402   c0,0.829,0.672,1.5,1.5,1.5s1.5-0.671,1.5-1.5v-2.402l2.08,1.201c0.236,0.137,0.494,0.202,0.749,0.202   c0.518,0,1.022-0.269,1.3-0.75c0.414-0.717,0.169-1.635-0.549-2.049l-2.08-1.201l2.08-1.201   C32.628,44.731,32.873,43.813,32.459,43.096z" fill="#FFFFFF"/>
	<path d="M11.459,43.096c-0.414-0.719-1.332-0.963-2.049-0.549l-2.08,1.201v-2.402c0-0.829-0.672-1.5-1.5-1.5s-1.5,0.671-1.5,1.5   v2.402l-2.08-1.201c-0.717-0.414-1.635-0.17-2.049,0.549c-0.414,0.717-0.169,1.635,0.549,2.049l2.08,1.201l-2.08,1.201   c-0.718,0.414-0.963,1.332-0.549,2.049c0.277,0.481,0.782,0.75,1.3,0.75c0.255,0,0.513-0.065,0.749-0.202l2.08-1.201v2.402   c0,0.829,0.672,1.5,1.5,1.5s1.5-0.671,1.5-1.5v-2.402l2.08,1.201c0.236,0.137,0.494,0.202,0.749,0.202   c0.518,0,1.022-0.269,1.3-0.75c0.414-0.717,0.169-1.635-0.549-2.049l-2.08-1.201l2.08-1.201   C11.628,44.731,11.873,43.813,11.459,43.096z" fill="#FFFFFF"/>
	<path d="M53.459,43.096c-0.414-0.719-1.332-0.963-2.049-0.549l-2.08,1.201v-2.402c0-0.829-0.672-1.5-1.5-1.5s-1.5,0.671-1.5,1.5   v2.402l-2.08-1.201c-0.717-0.414-1.635-0.17-2.049,0.549c-0.414,0.717-0.169,1.635,0.549,2.049l2.08,1.201l-2.08,1.201   c-0.718,0.414-0.963,1.332-0.549,2.049c0.277,0.481,0.782,0.75,1.3,0.75c0.255,0,0.513-0.065,0.749-0.202l2.08-1.201v2.402   c0,0.829,0.672,1.5,1.5,1.5s1.5-0.671,1.5-1.5v-2.402l2.08,1.201c0.236,0.137,0.494,0.202,0.749,0.202   c0.518,0,1.022-0.269,1.3-0.75c0.414-0.717,0.169-1.635-0.549-2.049l-2.08-1.201l2.08-1.201   C53.628,44.731,53.873,43.813,53.459,43.096z" fill="#FFFFFF"/>
	<path d="M21.201,17.096c-0.414,0.717-0.169,1.635,0.549,2.049l2.08,1.201l-2.08,1.201c-0.718,0.414-0.963,1.332-0.549,2.049   c0.277,0.481,0.782,0.75,1.3,0.75c0.255,0,0.513-0.065,0.749-0.202l2.08-1.201v2.402c0,0.829,0.672,1.5,1.5,1.5s1.5-0.671,1.5-1.5   v-2.402l2.08,1.201c0.236,0.137,0.494,0.202,0.749,0.202c0.518,0,1.022-0.269,1.3-0.75c0.414-0.717,0.169-1.635-0.549-2.049   l-2.08-1.201l2.08-1.201c0.718-0.414,0.963-1.332,0.549-2.049c-0.414-0.719-1.332-0.963-2.049-0.549l-2.08,1.201v-2.402   c0-0.829-0.672-1.5-1.5-1.5s-1.5,0.671-1.5,1.5v2.402l-2.08-1.201C22.533,16.132,21.615,16.377,21.201,17.096z" fill="#FFFFFF"/>
	<path d="M0.201,23.596c0.277,0.481,0.782,0.75,1.3,0.75c0.255,0,0.513-0.065,0.749-0.202l2.08-1.201v2.402   c0,0.829,0.672,1.5,1.5,1.5s1.5-0.671,1.5-1.5v-2.402l2.08,1.201c0.236,0.137,0.494,0.202,0.749,0.202   c0.518,0,1.022-0.269,1.3-0.75c0.414-0.717,0.169-1.635-0.549-2.049l-2.08-1.201l2.08-1.201c0.718-0.414,0.963-1.332,0.549-2.049   c-0.414-0.719-1.332-0.963-2.049-0.549l-2.08,1.201v-2.402c0-0.829-0.672-1.5-1.5-1.5s-1.5,0.671-1.5,1.5v2.402l-2.08-1.201   c-0.717-0.415-1.635-0.17-2.049,0.549c-0.414,0.717-0.169,1.635,0.549,2.049l2.08,1.201l-2.08,1.201   C0.032,21.961-0.213,22.879,0.201,23.596z" fill="#FFFFFF"/>
	<path d="M52.91,21.547l-2.08-1.201l2.08-1.201c0.718-0.414,0.963-1.332,0.549-2.049c-0.414-0.719-1.332-0.963-2.049-0.549   l-2.08,1.201v-2.402c0-0.829-0.672-1.5-1.5-1.5s-1.5,0.671-1.5,1.5v2.402l-2.08-1.201c-0.717-0.415-1.635-0.17-2.049,0.549   c-0.414,0.717-0.169,1.635,0.549,2.049l2.08,1.201l-2.08,1.201c-0.718,0.414-0.963,1.332-0.549,2.049   c0.277,0.481,0.782,0.75,1.3,0.75c0.255,0,0.513-0.065,0.749-0.202l2.08-1.201v2.402c0,0.829,0.672,1.5,1.5,1.5s1.5-0.671,1.5-1.5   v-2.402l2.08,1.201c0.236,0.137,0.494,0.202,0.749,0.202c0.518,0,1.022-0.269,1.3-0.75C53.873,22.879,53.628,21.961,52.91,21.547z" fill="#FFFFFF"/>
</g>
<g>
</g>
<g>
</g>
<g>
</g>
<g>
</g>
<g>
</g>
<g>
</g>
<g>
</g>
<g>
</g>
<g>
</g>
<g>
</g>
<g>
</g>
<g>
</g>
<g>
</g>
<g>
</g>
<g>
</g>
</svg>
